<?xml version="1.0" encoding="UTF-8" standalone="no"?>
<!-- Created with Inkscape (http://www.inkscape.org/) -->

<svg
   xmlns:dc="http://purl.org/dc/elements/1.1/"
   xmlns:cc="http://creativecommons.org/ns#"
   xmlns:rdf="http://www.w3.org/1999/02/22-rdf-syntax-ns#"
   xmlns:svg="http://www.w3.org/2000/svg"
   xmlns="http://www.w3.org/2000/svg"
   xmlns:sodipodi="http://sodipodi.sourceforge.net/DTD/sodipodi-0.dtd"
   xmlns:inkscape="http://www.inkscape.org/namespaces/inkscape"
   width="744.09448819"
   height="1052.3622047"
   id="svg2"
   version="1.1"
   inkscape:version="0.48.3.1 r9886"
   sodipodi:docname="22ca.svg">
  <defs
     id="defs4" />
  <sodipodi:namedview
     id="base"
     pagecolor="#ffffff"
     bordercolor="#666666"
     borderopacity="1.0"
     inkscape:pageopacity="0.0"
     inkscape:pageshadow="2"
     inkscape:zoom="1.979899"
     inkscape:cx="151.67641"
     inkscape:cy="833.73411"
     inkscape:document-units="px"
     inkscape:current-layer="g3120"
     showgrid="false"
     inkscape:window-width="767"
     inkscape:window-height="782"
     inkscape:window-x="657"
     inkscape:window-y="59"
     inkscape:window-maximized="0" />
  <metadata
     id="metadata7">
    <rdf:RDF>
      <cc:Work
         rdf:about="">
        <dc:format>image/svg+xml</dc:format>
        <dc:type
           rdf:resource="http://purl.org/dc/dcmitype/StillImage" />
        <dc:title></dc:title>
      </cc:Work>
    </rdf:RDF>
  </metadata>
  <g
     inkscape:label="Layer 1"
     inkscape:groupmode="layer"
     id="layer1">
    <g
       id="g3120"
       transform="translate(122.85714,94.285714)">
      <path
         id="path3211"
         style="fill:#a1cad0"
         d=
			"m 51.746244,260.2565 c 4.620066,-1.63362 8.868893,-4.25364 12.435714,-7.66841 l 1.665802,-1.59479 0,-7.75746 0,-7.75747 -3.62557,0.002 c -15.587279,0.006 -23.815372,1.6909 -28.176055,5.76981 l -1.822067,1.70433 -0.876118,2.03659 -0.876118,2.03659 -0.02908,2.94661 -0.02908,2.94662 0.713328,1.37183 c 1.852357,3.56239 4.05688,5.32356 8.077402,6.45301 l 2.146244,0.60294 4.115512,-0.16313 4.115513,-0.16309 2.164555,-0.76537 z m -37.525567,-0.12237 c 5.618027,-1.89258 8.022086,-4.78904 9.86633,-11.88715 0.537568,-2.06898 1.46698,-4.77302 2.065364,-6.00896 l 1.087965,-2.24716 2.35178,-2.35423 2.351784,-2.35423 2.351658,-1.23556 c 5.639738,-2.9631 17.017891,-4.81296 29.746661,-4.83622 l 1.918016,-0.004 -0.266728,-3.53328 c -0.1467,-1.94331 -0.606846,-4.63447 -1.022548,-5.98035 l -0.755823,-2.44707 -1.679376,-1.62175 c -1.961344,-1.89403 -3.971819,-2.95893 -6.970745,-3.69222 l -2.155745,-0.52712 -4.703443,0.0223 -4.703442,0.0223 -2.524189,0.6776 c -5.633391,1.51224 -9.4157,4.79201 -10.769378,9.3385 l -0.204228,0.68592 -3.312407,0 -3.312407,0 -0.647053,-1.9481 -0.647056,-1.94811 -1.754839,-1.9518 -1.754839,-1.9518 -2.039083,-0.96241 c -1.121497,-0.52932 -3.145812,-1.17929 -4.498475,-1.44436 L 9.7790362,211.4629 6.163151,211.67686 c -4.5701862,0.27044 -7.0846231,1.05144 -10.1593968,3.15561 l -2.4383979,1.66868 -1.6409292,2.39785 c -1.8464344,2.69815 -3.1049971,5.76452 -3.9089251,9.52371 l -0.544839,2.54769 -0.0068,5.71862 -0.0068,5.71862 0.756407,2.95753 c 0.416028,1.62664 1.404891,4.24524 2.1974841,5.81911 l 1.4410721,2.86161 2.2119938,2.20223 c 2.4290694,2.41835 4.98322297,3.83318 8.2872777,4.59052 l 2.1557446,0.49413 3.6708723,-0.20005 3.6708684,-0.20005 2.371907,-0.79904 z m -12.2450088,6.91081 -2.92331496,-0.55501 -3.24600644,-1.60845 -3.2460065,-1.60846 -2.3352671,-2.16206 c -3.8226682,-3.53911 -6.4763892,-8.34775 -8.0927312,-14.66434 l -0.750572,-2.9332 0.02571,-7.83907 0.02571,-7.83907 1.074604,-3.51299 c 0.591034,-1.93214 1.723165,-4.75421 2.515848,-6.27126 l 1.44124,-2.75826 2.77257,-2.78541 2.7725698,-2.78539 3.3088444,-1.61151 3.3088445,-1.61149 3.0211152,-0.60051 c 10.1742091,-2.02233 19.7112701,1.2491 24.2291931,8.31117 l 1.062323,1.66055 1.394406,-2.10013 c 2.465494,-3.7133 5.884011,-5.95902 11.185837,-7.34828 l 3.005923,-0.78766 4.703443,-0.2156 4.703443,-0.21561 3.48119,0.65776 c 1.914654,0.36177 4.615661,1.11192 6.002236,1.66701 l 2.521049,1.00924 2.157183,1.97155 2.157183,1.97154 1.153084,2.28425 c 0.6342,1.25634 1.447136,3.38844 1.80653,4.73799 l 0.653437,2.45374 0.150499,22.04738 0.150502,22.04739 -3.159271,0 -3.159271,0 0,-3.79689 0,-3.7969 -1.077873,1.01301 c -2.976605,2.79737 -9.366047,5.98838 -14.471352,7.22723 l -2.676615,0.64947 -4.311489,0.0235 -4.31149,0.0235 -2.339923,-0.70744 c -4.318803,-1.30571 -8.417504,-4.21267 -9.852583,-6.98778 l -0.561423,-1.08567 -2.441988,2.47796 -2.441992,2.47801 -2.547698,1.23254 c -3.34826,1.61987 -6.502384,2.40068 -10.5827463,2.61982 l -3.3316052,0.17892 -2.923315,-0.55504 z" />
    </g>
  </g>
</svg>
