<?xml version="1.0" encoding="UTF-8" standalone="no"?>
<!-- Created with Inkscape (http://www.inkscape.org/) -->

<svg
   xmlns:dc="http://purl.org/dc/elements/1.1/"
   xmlns:cc="http://creativecommons.org/ns#"
   xmlns:rdf="http://www.w3.org/1999/02/22-rdf-syntax-ns#"
   xmlns:svg="http://www.w3.org/2000/svg"
   xmlns="http://www.w3.org/2000/svg"
   xmlns:sodipodi="http://sodipodi.sourceforge.net/DTD/sodipodi-0.dtd"
   xmlns:inkscape="http://www.inkscape.org/namespaces/inkscape"
   width="744.09448819"
   height="1052.3622047"
   id="svg2"
   version="1.1"
   inkscape:version="0.48.3.1 r9886"
   sodipodi:docname="22small.svg">
  <defs
     id="defs4" />
  <sodipodi:namedview
     id="base"
     pagecolor="#ffffff"
     bordercolor="#666666"
     borderopacity="1.0"
     inkscape:pageopacity="0.0"
     inkscape:pageshadow="2"
     inkscape:zoom="1.979899"
     inkscape:cx="151.67641"
     inkscape:cy="833.73411"
     inkscape:document-units="px"
     inkscape:current-layer="g3120"
     showgrid="false"
     inkscape:window-width="767"
     inkscape:window-height="782"
     inkscape:window-x="657"
     inkscape:window-y="59"
     inkscape:window-maximized="0" />
  <metadata
     id="metadata7">
    <rdf:RDF>
      <cc:Work
         rdf:about="">
        <dc:format>image/svg+xml</dc:format>
        <dc:type
           rdf:resource="http://purl.org/dc/dcmitype/StillImage" />
        <dc:title />
      </cc:Work>
    </rdf:RDF>
  </metadata>
  <g
     inkscape:label="Layer 1"
     inkscape:groupmode="layer"
     id="layer1">
    <g
       id="g3120"
       transform="translate(122.85714,94.285714)">
      <path
         id="path3211"
         style="fill:#a1cad0"
         d="m 51.746244,260.2565 c 4.620066,-1.63362 8.868893,-4.25364 12.435714,-7.66841 l 1.665802,-1.59479 0,-7.75746 0,-7.75747 -3.62557,0.002 c -15.587279,0.006 -23.815372,1.6909 -28.176055,5.76981 l -1.822067,1.70433 -0.876118,2.03659 -0.876118,2.03659 -0.02908,2.94661 -0.02908,2.94662 0.713328,1.37183 c 1.852357,3.56239 4.05688,5.32356 8.077402,6.45301 l 2.146244,0.60294 4.115512,-0.16313 4.115513,-0.16309 2.164555,-0.76537 z m -37.525567,-0.12237 c 5.618027,-1.89258 8.022086,-4.78904 9.86633,-11.88715 0.537568,-2.06898 1.46698,-4.77302 2.065364,-6.00896 l 1.087965,-2.24716 2.35178,-2.35423 2.351784,-2.35423 2.351658,-1.23556 c 5.639738,-2.9631 17.017891,-4.81296 29.746661,-4.83622 l 1.918016,-0.004 -0.266728,-3.53328 c -0.1467,-1.94331 -0.606846,-4.63447 -1.022548,-5.98035 l -0.755823,-2.44707 -1.679376,-1.62175 c -1.961344,-1.89403 -3.971819,-2.95893 -6.970745,-3.69222 l -2.155745,-0.52712 -4.703443,0.0223 -4.703442,0.0223 -2.524189,0.6776 c -5.633391,1.51224 -9.4157,4.79201 -10.769378,9.3385 l -0.204228,0.68592 -3.312407,0 -3.312407,0 -0.647053,-1.9481 -0.647056,-1.94811 -1.754839,-1.9518 -1.754839,-1.9518 -2.039083,-0.96241 c -1.121497,-0.52932 -3.145812,-1.17929 -4.498475,-1.44436 L 9.7790362,211.4629 6.163151,211.67686 c -4.5701862,0.27044 -7.0846231,1.05144 -10.1593968,3.15561 l -2.4383979,1.66868 -1.6409292,2.39785 c -1.8464344,2.69815 -3.1049971,5.76452 -3.9089251,9.52371 l -0.544839,2.54769 -0.0068,5.71862 -0.0068,5.71862 0.756407,2.95753 c 0.416028,1.62664 1.404891,4.24524 2.1974841,5.81911 l 1.4410721,2.86161 2.2119938,2.20223 c 2.4290694,2.41835 4.98322297,3.83318 8.2872777,4.59052 l 2.1557446,0.49413 3.6708723,-0.20005 3.6708684,-0.20005 2.371907,-0.79904 z m -12.2450088,6.91081 -2.92331496,-0.55501 -3.24600644,-1.60845 -3.2460065,-1.60846 -2.3352671,-2.16206 c -3.8226682,-3.53911 -6.4763892,-8.34775 -8.0927312,-14.66434 l -0.750572,-2.9332 0.02571,-7.83907 0.02571,-7.83907 1.074604,-3.51299 c 0.591034,-1.93214 1.723165,-4.75421 2.515848,-6.27126 l 1.44124,-2.75826 2.77257,-2.78541 2.7725698,-2.78539 3.3088444,-1.61151 3.3088445,-1.61149 3.0211152,-0.60051 c 10.1742091,-2.02233 19.7112701,1.2491 24.2291931,8.31117 l 1.062323,1.66055 1.394406,-2.10013 c 2.465494,-3.7133 5.884011,-5.95902 11.185837,-7.34828 l 3.005923,-0.78766 4.703443,-0.2156 4.703443,-0.21561 3.48119,0.65776 c 1.914654,0.36177 4.615661,1.11192 6.002236,1.66701 l 2.521049,1.00924 2.157183,1.97155 2.157183,1.97154 1.153084,2.28425 c 0.6342,1.25634 1.447136,3.38844 1.80653,4.73799 l 0.653437,2.45374 0.150499,22.04738 0.150502,22.04739 -3.159271,0 -3.159271,0 0,-3.79689 0,-3.7969 -1.077873,1.01301 c -2.976605,2.79737 -9.366047,5.98838 -14.471352,7.22723 l -2.676615,0.64947 -4.311489,0.0235 -4.31149,0.0235 -2.339923,-0.70744 c -4.318803,-1.30571 -8.417504,-4.21267 -9.852583,-6.98778 l -0.561423,-1.08567 -2.441988,2.47796 -2.441992,2.47801 -2.547698,1.23254 c -3.34826,1.61987 -6.502384,2.40068 -10.5827463,2.61982 l -3.3316052,0.17892 -2.923315,-0.55504 z" />
      <path
         style="fill:#a1cad0"
         d="m 143.65054,267.19694 c -10.35823,-1.41562 -18.22584,-8.53977 -18.22584,-16.50352 l 0,-0.71276 3.05434,0 3.05433,0 0.48276,1.80498 c 1.2483,4.66727 5.46479,7.97183 11.72084,9.18594 l 2.43816,0.47317 4.61701,-0.18747 4.61701,-0.18751 2.21339,-0.85419 c 1.21738,-0.46979 3.00068,-1.54716 3.96291,-2.39417 l 1.74951,-1.53994 0.8247,-1.91713 c 0.4536,-1.05439 0.9358,-2.61175 1.07156,-3.46081 l 0.24686,-1.54374 -0.44551,-1.65448 c -0.24502,-0.90997 -0.98628,-2.2704 -1.64723,-3.02318 l -1.20174,-1.3687 -3.19125,-1.5606 c -1.75519,-0.85833 -5.21961,-2.11328 -7.69872,-2.78878 -17.43608,-4.75095 -20.85314,-6.45217 -23.40755,-11.65378 l -1.08954,-2.21867 0,-4.31148 0,-4.31149 1.03875,-1.96753 c 2.27084,-4.30125 7.02863,-7.40493 13.25519,-8.64682 l 3.31925,-0.66203 4.91178,0.21523 c 12.39441,0.5431 19.61003,5.57673 19.61003,13.67998 l 0,0.71277 -3.13562,0 -3.13563,0 0,-0.80337 c 0,-3.39652 -4.59946,-6.65215 -10.59606,-7.50018 l -3.20717,-0.45355 -3.85532,0.45234 c -6.32405,0.74197 -9.7508,2.46179 -11.30589,5.67418 l -0.82403,1.70222 0,2.16917 0,2.16916 1.15824,1.5989 1.15824,1.59891 3.25124,1.58815 c 1.78818,0.87348 5.72054,2.3048 8.73858,3.18071 17.13981,4.9744 20.32823,6.60175 22.78898,11.63134 l 1.0589,2.16432 0.17389,3.0038 0.17389,3.00381 -0.64771,2.52825 c -0.81644,3.1869 -2.20423,5.56555 -4.61986,7.91845 l -1.89493,1.84574 -2.83325,1.38317 c -5.04742,2.46417 -11.51118,3.39071 -17.72749,2.54119 z"
         id="path3209" />
      <path
         style="fill:#a1cad0"
         d="m 76.038553,236.45818 0,-29.5925 3.135628,0 3.135629,0 0,4.29798 0,4.29797 2.645686,-2.64365 c 3.195492,-3.19303 6.306815,-5.1433 10.48852,-6.57453 l 3.131866,-1.07191 3.919538,-0.0119 3.91953,-0.0119 2.93965,0.88784 c 5.9849,1.80758 9.26306,5.25668 11.2686,11.8562 l 0.63952,2.10442 0.14143,23.02727 0.14143,23.02727 -2.95986,0 -2.95986,0 -0.008,-20.47957 -0.008,-20.47958 -0.39033,-2.74367 -0.39034,-2.74368 -1.07172,-2.1557 -1.07173,-2.1557 -1.67571,-1.2582 c -2.18766,-1.64261 -3.82531,-2.11345 -8.19644,-2.35654 l -3.600895,-0.20025 -2.670364,0.81701 c -3.801256,1.163 -7.200324,3.30706 -10.966484,6.91743 l -3.270931,3.13563 0.0024,21.85141 0.0024,21.85141 -3.135629,0 -3.135628,0 0,-29.59249 z"
         id="path3203" />
      <path
         style="fill:#a1cad0"
         d="m -90.34573,192.4135 c -1.293447,-0.37292 -3.609214,-1.34112 -5.146146,-2.15155 l -2.794429,-1.47351 -2.348755,-2.24189 c -4.20428,-4.01302 -6.70652,-8.91372 -7.51345,-14.71528 l -0.42306,-3.04172 0,-127.356546 0,-127.356541 139.731441,0 139.731439,0 0,23.71319 0,23.71319 -39.09736,0.0035 c -21.50356,0.002 -58.429312,3.52e-4 -82.05724,-0.0035 l -42.9598694,-0.0067 -38.1745166,20.380761 c -20.995983,11.2094195 -38.322145,20.4318475 -38.502581,20.4942818 -0.180436,0.062434 2.950293,13.0350892 6.957175,28.8281212 4.006883,15.793031 7.285241,28.936939 7.285241,29.208684 0,0.271745 -8.113438,6.371832 -18.029863,13.555745 -9.916425,7.183913 -18.029864,13.186654 -18.029864,13.339422 0,0.152768 4.98271,2.718582 11.072688,5.701811 6.089979,2.983229 19.715264,9.693931 30.278412,14.912671 16.192083,7.99972 80.031946,39.02544 100.016497,48.60731 l 5.947644,2.85168 32.029261,-43.88811 32.029256,-43.888099 0.63052,0.231997 c 0.34679,0.127597 11.8809,4.748851 25.63137,10.26945 l 25.00085,10.037452 -0.1118,40.41122 -0.11179,40.41124 -1.10674,3.13187 c -1.47193,4.16532 -3.45038,7.33238 -6.38998,10.22895 l -2.42157,2.38613 -3.0759,1.59755 c -1.69175,0.87866 -4.15965,1.87736 -5.48421,2.21933 l -2.4083,0.62178 -118.90132,-0.0279 -118.901329,-0.0279 -2.351721,-0.67805 z"
         id="path3141" />
      <path
         style="fill:#a1cad0"
         d="m -69.08225,2.790335 c 0.269468,-0.1087319 0.710416,-0.1087319 0.979884,0 0.269468,0.1087318 0.04899,0.1976974 -0.489942,0.1976974 -0.538936,0 -0.75941,-0.088966 -0.489942,-0.1976974 z"
         id="path3130" />
      <path
         id="path3053"
         style="fill:#71989e"
         d="m -108.17962,265.86908 c 0,-0.0999 5.57286,-7.5464 12.384132,-16.5477 12.7546,-16.85561 14.242413,-19.12565 15.028966,-22.93055 l 0.460651,-2.22836 -0.270883,-1.4952 c -1.769177,-9.76543 -16.23621,-7.82668 -16.23621,2.17584 l 0,1.22838 -5.487346,0 -5.48735,0 0,-1.44479 c 0,-4.16063 2.45231,-10.00771 5.58778,-13.323 l 1.98518,-2.09905 2.386788,-1.16097 c 18.356032,-8.92866 34.874193,7.81188 25.716629,26.06286 l -1.573325,3.13562 -6.270547,8.42701 c -3.448799,4.63485 -6.454146,8.73566 -6.678548,9.11292 l -0.408004,0.68592 9.028725,0 9.02872,0 0,5.29137 0,5.29137 -19.597677,0 c -10.778723,0 -19.597681,-0.0818 -19.597681,-0.18167 z"
         inkscape:connector-curvature="0" />
      <path
         id="path3051"
         style="fill:#71989e"
         d="m -64.019547,265.10211 c 24.418914,-32.23632 25.395808,-33.58869 26.42603,-36.58309 l 0.749447,-2.1783 -0.0086,-2.19237 -0.0086,-2.19237 -0.744532,-1.63988 -0.744527,-1.63988 -1.599006,-1.05817 -1.599006,-1.05817 -2.645263,-0.17764 -2.645267,-0.17764 -1.763791,0.94124 -1.763791,0.94125 -1.240482,2.05724 -1.240482,2.05724 -0.266125,1.93496 -0.266125,1.93496 -5.474583,0 -5.474588,0 0.257399,-1.86178 c 1.104796,-7.99106 4.402004,-13.3516 9.928317,-16.14128 7.899601,-3.9877 17.553334,-2.93621 23.013071,2.50661 l 1.990442,1.98428 1.503934,3.043 1.503934,3.04301 0.178323,4.00952 0.178323,4.00954 -0.641785,2.50512 c -1.000916,3.90696 -3.070752,7.37276 -10.142112,16.98225 -3.605945,4.90028 -6.556289,9.00108 -6.556289,9.11294 0,0.11182 4.056719,0.20331 9.014932,0.20331 l 9.014932,0 0,5.29137 0,5.29137 -19.826348,0 -19.826343,0 0.718607,-0.94864 z"
         inkscape:connector-curvature="0" />
      <path
         style="fill:#71989e"
         d="m 55.265015,159.2914 c 0,-0.0814 0.308663,-0.39005 0.685918,-0.68592 l 0.685919,-0.53793 -0.537933,0.68592 c -0.512036,0.65289 -0.833904,0.86052 -0.833904,0.53793 z"
         id="path3049" />
      <path
         style="fill:#71989e"
         d="m -42.945482,111.65652 c -0.201201,-0.18888 -11.257231,-5.68435 -24.568954,-12.212168 -13.311722,-6.52781 -24.203132,-11.992571 -24.203132,-12.143912 0,-0.151338 7.888595,-5.98528 17.530209,-12.964315 9.641615,-6.979035 17.807481,-12.962053 18.146368,-13.295597 l 0.616163,-0.60645 6.517058,25.688459 c 6.554212,25.834923 6.630396,26.161173 5.962288,25.533983 z"
         id="path3047"
         inkscape:connector-curvature="0" />
      <path
         style="fill:#71989e"
         d="m -70.129177,2.8212797 0.03092,-0.7512456 0.205861,0.514439 c 0.113224,0.2829395 0.0993,0.6210034 -0.03092,0.7512456 -0.130246,0.1302423 -0.22288,-0.1012572 -0.205861,-0.514439 z"
         id="path3128" />
      <path
         style="fill:#b7ea01"
         d="M 72.217006,54.471061 C 46.294178,45.077823 25.094935,37.293775 25.107579,37.173175 c 0.01262,-0.120601 3.319749,-2.765217 7.349129,-5.876921 4.029377,-3.111703 20.167688,-15.609953 35.862915,-27.773887 15.695224,-12.1639335 28.607095,-22.04592 28.693042,-21.959968 0.08595,0.08595 5.108445,20.1684973 11.161095,44.627888 6.05265,24.459391 11.08182,44.692092 11.17593,44.961561 0.0941,0.269468 0.13254,0.469215 0.0854,0.443887 -0.0471,-0.02532 -21.295276,-7.731437 -47.218104,-17.124674 z"
         id="path3126"
         inkscape:connector-curvature="0" />
      <path
         style="fill:#69b100"
         d="m 40.153798,98.187051 -15.265184,-60.880608 6.07528,2.203559 c 3.341404,1.211959 24.550991,8.876854 47.132415,17.033098 22.581421,8.156247 41.057131,14.990969 41.057131,15.18827 0,0.374206 -61.912443,85.42134 -63.072202,86.64026 l -0.662256,0.69603 -15.265184,-60.880609 z"
         id="path3137"
         inkscape:connector-curvature="0" />
      <path
         style="fill:#69b100"
         d="M -25.085463,9.1109231 C -48.906441,5.5759881 -68.704995,2.7496384 -69.08225,2.8301496 -71.088445,3.2582844 -66.638659,0.79899928 -31.357634,-18.01932 l 38.3988355,-20.481306 42.7307525,0.09972 42.730749,0.09972 -35.766812,26.838771 -35.766812,26.838772 -1.371838,0.08086 c -0.75451,0.04448 -20.8617273,-2.811361 -44.682704,-6.3462959 z"
         id="path3124"
         inkscape:connector-curvature="0" />
      <path
         style="fill:#4e8500"
         d="M 6.6627742,135.49849 C -19.960671,122.59438 -41.88905,111.98268 -42.066953,111.91692 c -0.177904,-0.0658 -3.19784,-11.49158 -6.710966,-25.39073 C -52.29105,72.627047 -58.458956,48.225579 -62.484382,32.300702 -66.509804,16.375829 -69.717395,3.2604441 -69.612356,3.1554044 -69.400701,2.9437534 24.32963,37.015727 24.756436,37.459469 c 0.31787,0.330484 30.634909,121.205251 30.443895,121.380541 -0.07221,0.0663 -21.914112,-10.43743 -48.5375568,-23.34152 z"
         id="path3122"
         inkscape:connector-curvature="0" />
    </g>
  </g>
</svg>
