<?xml version="1.0" encoding="UTF-8" standalone="no"?>
<!-- Created with Inkscape (http://www.inkscape.org/) -->

<svg>
  <g
     label="Layer 1"
     groupmode="layer"
     id="layer1">
    <g
       style="font-size:40px;font-style:normal;font-weight:normal;line-height:125%;letter-spacing:0px;word-spacing:0px;fill:#000000;fill-opacity:1;stroke:none;font-family:Bitstream Vera Sans"
       id="flowRoot2985">
      <g
         style="line-height:125%;fill:#000000;font-family:Bitstream Vera Sans"
         id="text3980">
        <path
           d="m 224.0186,70.341688 0,33.281282 c -10.62518,-9.895682 -21.97938,-17.291442 -34.06258,-22.187522 -11.97928,-4.8956 -24.73964,-7.34352 -38.28116,-7.34376 -26.6668,2.4e-4 -47.08348,8.17728 -61.250002,24.53128 -14.166735,16.250162 -21.250075,39.791842 -21.249995,70.624962 -8e-5,30.72928 7.08326,54.27096 21.249995,70.62504 14.166522,16.25 34.583202,24.37504 61.250002,24.37496 13.54152,8e-5 26.30192,-2.44784 38.28116,-7.34368 12.0832,-4.89584 23.43736,-12.29168 34.06258,-22.18752 l 0,32.96872 c -11.04192,7.5 -22.76062,13.12504 -35.15634,16.87504 -12.29176,3.75 -25.31264,5.62496 -39.0625,5.62496 -35.31254,0 -63.125002,-10.7812 -83.437497,-32.34376 -20.31248,-21.66656 -30.46872,-51.19784 -30.46872,-88.59376 0,-37.49984 10.15624,-67.03104 30.46872,-88.593682 20.312495,-21.66648 48.124997,-32.49976 83.437497,-32.5 13.95826,2.4e-4 27.08322,1.8752 39.37506,5.62496 12.39558,3.64608 24.01016,9.16688 34.84374,16.56248"
           id="path3985"
           connector-curvature="0"
           inkscape:connector-curvature="0" />
      </g>
    </g>
  </g>
</svg>
