<?xml version="1.0" encoding="UTF-8" standalone="no"?>
<!-- Created with Inkscape (http://www.inkscape.org/) -->

<svg
   xmlns:dc="http://purl.org/dc/elements/1.1/"
   xmlns:cc="http://creativecommons.org/ns#"
   xmlns:rdf="http://www.w3.org/1999/02/22-rdf-syntax-ns#"
   xmlns:svg="http://www.w3.org/2000/svg"
   xmlns="http://www.w3.org/2000/svg"
   xmlns:sodipodi="http://sodipodi.sourceforge.net/DTD/sodipodi-0.dtd"
   xmlns:inkscape="http://www.inkscape.org/namespaces/inkscape"
   width="744.09448819"
   height="1052.3622047"
   id="svg2"
   version="1.1"
   inkscape:version="0.48.1 r9760"
   sodipodi:docname="fulltext.svg">
  <defs
     id="defs4" />
  <sodipodi:namedview
     id="base"
     pagecolor="#ffffff"
     bordercolor="#666666"
     borderopacity="1.0"
     inkscape:pageopacity="0.0"
     inkscape:pageshadow="2"
     inkscape:zoom="0.35"
     inkscape:cx="375"
     inkscape:cy="520"
     inkscape:document-units="px"
     inkscape:current-layer="layer1"
     showgrid="false"
     inkscape:window-width="1002"
     inkscape:window-height="649"
     inkscape:window-x="3"
     inkscape:window-y="99"
     inkscape:window-maximized="0" />
  <metadata
     id="metadata7">
    <rdf:RDF>
      <cc:Work
         rdf:about="">
        <dc:format>image/svg+xml</dc:format>
        <dc:type
           rdf:resource="http://purl.org/dc/dcmitype/StillImage" />
        <dc:title />
      </cc:Work>
    </rdf:RDF>
  </metadata>
  <g
     inkscape:label="Layer 1"
     inkscape:groupmode="layer"
     id="layer1">
    <g
       transform="translate(-128.57143,-365.71429)"
       style="font-size:40px;font-style:normal;font-weight:normal;line-height:125%;letter-spacing:0px;word-spacing:0px;fill:#000000;fill-opacity:1;stroke:none;font-family:Bitstream Vera Sans"
       id="flowRoot2985">
      <path
         d="m 183.52734,387.10188 0,7.48828 c -2.39067,-2.22652 -4.94535,-3.89058 -7.66406,-4.99219 -2.69535,-1.10151 -5.56644,-1.6523 -8.61328,-1.65234 -6.00002,4e-5 -10.59377,1.83989 -13.78125,5.51953 -3.18751,3.65629 -4.78126,8.95316 -4.78125,15.89062 -1e-5,6.91409 1.59374,12.21095 4.78125,15.89063 3.18748,3.65625 7.78123,5.48438 13.78125,5.48437 3.04684,1e-5 5.91793,-0.55077 8.61328,-1.65234 2.71871,-1.10156 5.27339,-2.76562 7.66406,-4.99219 l 0,7.41797 c -2.48442,1.6875 -5.12113,2.95313 -7.91015,3.79688 -2.76566,0.84375 -5.69535,1.26562 -8.78907,1.26562 -7.94533,0 -14.20314,-2.42578 -18.77343,-7.27734 -4.57032,-4.87499 -6.85548,-11.51952 -6.85547,-19.9336 -1e-5,-8.43746 2.28515,-15.08199 6.85547,-19.93359 4.57029,-4.87495 10.8281,-7.31245 18.77343,-7.3125 3.1406,5e-5 6.09372,0.42193 8.85938,1.26562 2.78902,0.82037 5.4023,2.06255 7.83984,3.72657"
         style="font-size:72px"
         id="path3020"
         inkscape:connector-curvature="0" />
      <path
         d="m 194.56641,383.05891 9.5625,0 23.27343,43.91015 0,-43.91015 6.89063,0 0,52.48828 -9.5625,0 -23.27344,-43.91016 0,43.91016 -6.89062,0 0,-52.48828"
         style="font-size:72px"
         id="path3022"
         inkscape:connector-curvature="0" />
      <path
         d="m 287.73047,387.10188 0,7.48828 c -2.39067,-2.22652 -4.94536,-3.89058 -7.66406,-4.99219 -2.69535,-1.10151 -5.56644,-1.6523 -8.61329,-1.65234 -6.00002,4e-5 -10.59376,1.83989 -13.78125,5.51953 -3.18751,3.65629 -4.78126,8.95316 -4.78125,15.89062 -1e-5,6.91409 1.59374,12.21095 4.78125,15.89063 3.18749,3.65625 7.78123,5.48438 13.78125,5.48437 3.04685,1e-5 5.91794,-0.55077 8.61329,-1.65234 2.7187,-1.10156 5.27339,-2.76562 7.66406,-4.99219 l 0,7.41797 c -2.48442,1.6875 -5.12114,2.95313 -7.91016,3.79688 -2.76566,0.84375 -5.69534,1.26562 -8.78906,1.26562 -7.94533,0 -14.20314,-2.42578 -18.77344,-7.27734 -4.57032,-4.87499 -6.85547,-11.51952 -6.85547,-19.9336 0,-8.43746 2.28515,-15.08199 6.85547,-19.93359 4.5703,-4.87495 10.82811,-7.31245 18.77344,-7.3125 3.14059,5e-5 6.09371,0.42193 8.85937,1.26562 2.78903,0.82037 5.4023,2.06255 7.83985,3.72657"
         style="font-size:72px"
         id="path3024"
         inkscape:connector-curvature="0" />
      <path
         d="m 349.67578,415.89485 c -3e-5,-4.75779 -0.98441,-8.48435 -2.95312,-11.17969 -1.94535,-2.71872 -4.62894,-4.07809 -8.05079,-4.07813 -3.42189,4e-5 -6.1172,1.35941 -8.08593,4.07813 -1.94533,2.69534 -2.91798,6.4219 -2.91797,11.17969 -1e-5,4.75782 0.97264,8.4961 2.91797,11.21484 1.96873,2.69532 4.66404,4.04297 8.08593,4.04297 3.42185,0 6.10544,-1.34765 8.05079,-4.04297 1.96871,-2.71874 2.95309,-6.45702 2.95312,-11.21484 m -22.00781,-13.7461 c 1.35936,-2.34371 3.0703,-4.07809 5.13281,-5.20312 2.08592,-1.1484 4.57029,-1.72262 7.45313,-1.72266 4.78122,4e-5 8.66012,1.89848 11.63671,5.69531 2.99996,3.79691 4.49996,8.78909 4.5,14.97657 -4e-5,6.18751 -1.50004,11.17969 -4.5,14.97656 -2.97659,3.79687 -6.85549,5.69531 -11.63671,5.69531 -2.88284,0 -5.36721,-0.5625 -7.45313,-1.6875 -2.06251,-1.14843 -3.77345,-2.89453 -5.13281,-5.23828 l 0,5.90625 -6.50391,0 0,-54.70313 6.50391,0 0,21.30469"
         style="font-size:72px"
         id="path3026"
         inkscape:connector-curvature="0" />
      <path
         d="m 383.49609,439.20344 c -1.82814,4.68749 -3.60939,7.74608 -5.34375,9.17578 -1.73439,1.42967 -4.0547,2.14452 -6.96093,2.14453 l -5.16797,0 0,-5.41406 3.79687,0 c 1.78124,-10e-6 3.16405,-0.42188 4.14844,-1.26563 0.98436,-0.84375 2.0742,-2.83594 3.26953,-5.97656 l 1.16016,-2.95312 -15.92578,-38.74219 6.85546,0 12.30469,30.79687 12.30469,-30.79687 6.85547,0 -17.29688,43.03125"
         style="font-size:72px"
         id="path3028"
         inkscape:connector-curvature="0" />
      <path
         d="m 452.57812,380.84406 0,5.37891 -6.1875,0 c -2.32033,5e-5 -3.93751,0.4688 -4.85156,1.40625 -0.89064,0.93755 -1.33595,2.62505 -1.33594,5.0625 l 0,3.48047 10.65235,0 0,5.02734 -10.65235,0 0,34.34766 -6.5039,0 0,-34.34766 -6.1875,0 0,-5.02734 6.1875,0 0,-2.74219 c -1e-5,-4.38276 1.01952,-7.57026 3.05859,-9.5625 2.03905,-2.01557 5.27342,-3.02338 9.70313,-3.02344 l 6.11718,0"
         style="font-size:72px"
         id="path3030"
         inkscape:connector-curvature="0" />
      <path
         d="m 475.85156,415.75422 c -5.22658,2e-5 -8.84767,0.59768 -10.86328,1.79297 -2.01564,1.19533 -3.02345,3.23439 -3.02344,6.11719 -10e-6,2.29688 0.74999,4.125 2.25,5.48437 1.52343,1.33594 3.58592,2.00391 6.1875,2.00391 3.58592,0 6.45701,-1.26562 8.61328,-3.79688 2.17966,-2.55467 3.26951,-5.94139 3.26954,-10.16015 l 0,-1.44141 -6.4336,0 m 12.90235,-2.67187 0,22.46484 -6.46875,0 0,-5.97656 c -1.4766,2.39063 -3.31644,4.16016 -5.51954,5.30859 -2.20314,1.125 -4.89845,1.6875 -8.08593,1.6875 -4.03127,0 -7.2422,-1.125 -9.63282,-3.375 -2.36719,-2.27343 -3.55078,-5.30859 -3.55078,-9.10547 0,-4.42967 1.47656,-7.76951 4.42969,-10.01953 2.97655,-2.24998 7.40624,-3.37497 13.28906,-3.375 l 9.07032,0 0,-0.63281 c -3e-5,-2.97654 -0.98441,-5.27341 -2.95313,-6.89063 -1.94534,-1.64059 -4.68752,-2.4609 -8.22656,-2.46093 -2.25002,3e-5 -4.44142,0.26956 -6.57422,0.80859 -2.13282,0.5391 -4.1836,1.34769 -6.15234,2.42578 l 0,-5.97656 c 2.36717,-0.91403 4.66405,-1.59371 6.89062,-2.03906 2.22655,-0.46871 4.39451,-0.70309 6.50391,-0.70313 5.69528,4e-5 9.94919,1.4766 12.76172,4.42969 2.81246,2.95316 4.21871,7.42971 4.21875,13.42969"
         style="font-size:72px"
         id="path3032"
         inkscape:connector-curvature="0" />
      <path
         d="m 530.37891,415.89485 c -4e-5,-4.75779 -0.98441,-8.48435 -2.95313,-11.17969 -1.94534,-2.71872 -4.62893,-4.07809 -8.05078,-4.07813 -3.4219,4e-5 -6.11721,1.35941 -8.08594,4.07813 -1.94532,2.69534 -2.91798,6.4219 -2.91797,11.17969 -10e-6,4.75782 0.97265,8.4961 2.91797,11.21484 1.96873,2.69532 4.66404,4.04297 8.08594,4.04297 3.42185,0 6.10544,-1.34765 8.05078,-4.04297 1.96872,-2.71874 2.95309,-6.45702 2.95313,-11.21484 m -22.00782,-13.7461 c 1.35936,-2.34371 3.0703,-4.07809 5.13282,-5.20312 2.08591,-1.1484 4.57029,-1.72262 7.45312,-1.72266 4.78122,4e-5 8.66012,1.89848 11.63672,5.69531 2.99996,3.79691 4.49996,8.78909 4.5,14.97657 -4e-5,6.18751 -1.50004,11.17969 -4.5,14.97656 -2.9766,3.79687 -6.8555,5.69531 -11.63672,5.69531 -2.88283,0 -5.36721,-0.5625 -7.45312,-1.6875 -2.06252,-1.14843 -3.77346,-2.89453 -5.13282,-5.23828 l 0,5.90625 -6.5039,0 0,-54.70313 6.5039,0 0,21.30469"
         style="font-size:72px"
         id="path3034"
         inkscape:connector-curvature="0" />
      <path
         d="m 572.91797,397.33235 0,6.11718 c -1.82816,-0.93746 -3.72659,-1.64059 -5.69531,-2.10937 -1.96878,-0.46872 -4.00784,-0.70309 -6.11719,-0.70313 -3.21096,4e-5 -5.62502,0.49223 -7.24219,1.47657 -1.59376,0.9844 -2.39063,2.46096 -2.39062,4.42968 -10e-6,1.50003 0.5742,2.68362 1.72265,3.55078 1.14843,0.84378 3.45702,1.65237 6.92578,2.42579 l 2.21485,0.49218 c 4.59372,0.9844 7.85153,2.37893 9.77343,4.1836 1.94528,1.78126 2.91794,4.27735 2.91797,7.48828 -3e-5,3.65626 -1.45315,6.55078 -4.35937,8.68359 -2.88284,2.13281 -6.85549,3.19922 -11.91797,3.19922 -2.10939,0 -4.31251,-0.21094 -6.60938,-0.63281 -2.27344,-0.39844 -4.67578,-1.00781 -7.20703,-1.82813 l 0,-6.67968 c 2.39062,1.24219 4.74609,2.17969 7.06641,2.8125 2.3203,0.60938 4.61717,0.91406 6.89062,0.91406 3.04686,0 5.39061,-0.51562 7.03125,-1.54688 1.6406,-1.05468 2.46092,-2.53124 2.46094,-4.42968 -2e-5,-1.7578 -0.59768,-3.10546 -1.79297,-4.04297 -1.1719,-0.93749 -3.76174,-1.83983 -7.76953,-2.70703 l -2.25,-0.52735 c -4.00782,-0.84373 -6.90235,-2.13279 -8.68359,-3.86719 -1.78126,-1.75778 -2.67188,-4.16013 -2.67188,-7.20703 0,-3.70309 1.3125,-6.56246 3.9375,-8.57812 2.62499,-2.01559 6.35155,-3.0234 11.17969,-3.02344 2.3906,4e-5 4.6406,0.17582 6.75,0.52734 2.10935,0.35161 4.05466,0.87895 5.83594,1.58204"
         style="font-size:72px"
         id="path3036"
         inkscape:connector-curvature="0" />
      <path
         d="m 600.90234,380.91438 c -3.14064,5.39067 -5.47267,10.7227 -6.99609,15.99609 -1.52345,5.27347 -2.28517,10.61722 -2.28516,16.03125 -10e-6,5.41408 0.76171,10.78126 2.28516,16.10156 1.54686,5.29688 3.87889,10.62891 6.99609,15.9961 l -5.625,0 c -3.51563,-5.50782 -6.15235,-10.92188 -7.91015,-16.24219 -1.73438,-5.3203 -2.60157,-10.60545 -2.60157,-15.85547 0,-5.22653 0.86719,-10.48825 2.60157,-15.78516 1.73436,-5.29683 4.37108,-10.71088 7.91015,-16.24218 l 5.625,0"
         style="font-size:72px"
         id="path3038"
         inkscape:connector-curvature="0" />
      <path
         d="m 612.46875,380.91438 5.625,0 c 3.51561,5.5313 6.14061,10.94535 7.875,16.24218 1.75779,5.29691 2.6367,10.55863 2.63672,15.78516 -2e-5,5.25002 -0.87893,10.53517 -2.63672,15.85547 -1.73439,5.32031 -4.35939,10.73437 -7.875,16.24219 l -5.625,0 c 3.11718,-5.36719 5.43749,-10.69922 6.96094,-15.9961 1.54686,-5.3203 2.32029,-10.68748 2.32031,-16.10156 -2e-5,-5.41403 -0.77345,-10.75778 -2.32031,-16.03125 -1.52345,-5.27339 -3.84376,-10.60542 -6.96094,-15.99609"
         style="font-size:72px"
         id="path3040"
         inkscape:connector-curvature="0" />
      <path
         d="m 643.26562,398.31672 7.41797,0 0,8.92969 -7.41797,0 0,-8.92969 m 0,28.30078 7.41797,0 0,6.04688 -5.76562,11.25 -4.53516,0 2.88281,-11.25 0,-6.04688"
         style="font-size:72px"
         id="path3042"
         inkscape:connector-curvature="0" />
    </g>
  </g>
</svg>
