<?xml version="1.0" encoding="UTF-8" standalone="no"?>
<!-- Created with Inkscape (http://www.inkscape.org/) -->

<svg
   xmlns:dc="http://purl.org/dc/elements/1.1/"
   xmlns:cc="http://creativecommons.org/ns#"
   xmlns:rdf="http://www.w3.org/1999/02/22-rdf-syntax-ns#"
   xmlns:svg="http://www.w3.org/2000/svg"
   xmlns="http://www.w3.org/2000/svg"
   xmlns:sodipodi="http://sodipodi.sourceforge.net/DTD/sodipodi-0.dtd"
   xmlns:inkscape="http://www.inkscape.org/namespaces/inkscape"
   id="svg2"
   version="1.1"
   inkscape:version="0.48.1 r9760"
   width="100%"
   height="100%"
   sodipodi:docname="maya.svg">
  <metadata
     id="metadata12">
    <rdf:RDF>
      <cc:Work
         rdf:about="">
        <dc:format>image/svg+xml</dc:format>
        <dc:type
           rdf:resource="http://purl.org/dc/dcmitype/StillImage" />
        <dc:title></dc:title>
      </cc:Work>
    </rdf:RDF>
  </metadata>
  <defs
     id="defs10">
    <inkscape:path-effect
       effect="skeletal"
       id="path-effect3010"
       is_visible="true"
       pattern="m -359.12854,69.290631 171.59366,-7.3121 -82.48368,13.18373 48.72647,0.58358 -59.76029,15.4856 74.06623,19.384489 -152.78991,-12.939659 45.00499,-8.38626 -103.28207,-2.81473 91.02711,-9.69375 z"
       copytype="single_stretched"
       prop_scale="1"
       scale_y_rel="false"
       spacing="0"
       normal_offset="0"
       tang_offset="0"
       prop_units="false"
       vertical_pattern="false"
       fuse_tolerance="0"
       pattern-nodetypes="ccccccccccc" />
    <inkscape:path-effect
       effect="spiro"
       id="path-effect3008"
       is_visible="true" />
    <inkscape:path-effect
       effect="spiro"
       id="path-effect2991"
       is_visible="true" />
  </defs>
  <sodipodi:namedview
     pagecolor="#ffffff"
     bordercolor="#666666"
     borderopacity="1"
     objecttolerance="10"
     gridtolerance="10"
     guidetolerance="10"
     inkscape:pageopacity="0"
     inkscape:pageshadow="2"
     inkscape:window-width="891"
     inkscape:window-height="736"
     id="namedview8"
     showgrid="false"
     inkscape:zoom="1.0034568"
     inkscape:cx="155.79478"
     inkscape:cy="972.63777"
     inkscape:window-x="0"
     inkscape:window-y="43"
     inkscape:window-maximized="0"
     inkscape:current-layer="svg2" />
  <g
     style="font-size:87.61585236px;font-style:normal;font-variant:normal;font-weight:normal;font-stretch:normal;line-height:125%;letter-spacing:0px;word-spacing:0px;fill:#000000;fill-opacity:1;stroke:none;font-family:Calluna;-inkscape-font-specification:Calluna"
     id="text2989">
    <path
       d="m 83.965538,2.7684372 c -6.666715,7.3333908 -12.900042,14.4000508 -18.7,21.1999998 -5.733364,6.800037 -10.966692,13.366697 -15.7,19.7 -4.800016,6.266685 -8.400012,11.233347 -10.8,14.9 -2.400007,3.600006 -3.600006,5.900004 -3.6,6.9 -6e-6,3e-6 -6e-6,0.03334 0,0.1 -6e-6,3e-6 0.03333,0.03334 0.1,0.1 -6e-6,0.06667 -6e-6,0.133336 0,0.2 0.06666,2e-6 0.133327,2e-6 0.2,0 0.06666,0.06667 0.133327,0.133335 0.2,0.2 0.133327,2e-6 0.233326,2e-6 0.3,0 0.799992,2e-6 2.566657,-1.399997 5.3,-4.2 2.733318,-2.799991 6.433315,-6.999987 11.1,-12.6 1.333309,-1.533313 2.499974,-2.899978 3.5,-4.1 0.999972,-1.266642 1.833305,-2.333308 2.5,-3.2 6.733297,-7.933299 12.533291,-14.533293 17.4,-19.8 4.866615,-5.333282 8.799944,-9.266611 11.8,-11.8 2.999938,-2.533273 5.766602,-4.4332711 8.3,-5.6999998 2.599931,-1.2666021 4.966592,-1.8999348 7.100002,-1.9 0.19992,6.52e-5 0.39992,6.52e-5 0.6,0 0.19992,6.52e-5 0.33326,6.52e-5 0.4,0 0.13326,6.52e-5 0.26659,6.52e-5 0.4,0 0.19992,6.52e-5 0.36659,0.033398 0.5,0.1 C 98.065469,10.801828 91.898808,18.20182 86.365538,25.068437 c -5.533385,6.800036 -10.43338,13.066697 -14.7,18.8 -4.266705,5.733352 -7.500035,10.300014 -9.7,13.7 -2.133364,3.400007 -3.20003,5.633338 -3.2,6.7 0.06664,0.400003 0.133303,0.733336 0.2,1 0.133303,0.266669 0.266636,0.466669 0.4,0.6 0.133303,0.200002 0.333303,0.333335 0.6,0.4 0.266635,0.06667 0.566635,0.100002 0.9,0.1 0.733301,2e-6 1.666633,-0.233331 2.8,-0.7 1.199964,-0.466664 2.533296,-1.166663 4,-2.1 1.533293,-0.933328 3.233291,-2.06666 5.1,-3.4 1.933288,-1.399991 3.999952,-2.999989 6.2,-4.8 l 1.2,1.3 c -1.933383,1.866676 -3.833381,3.533341 -5.7,5 -1.86671,1.400005 -3.700042,2.633337 -5.5,3.7 -1.800038,1.066668 -3.43337,1.833334 -4.9,2.3 -1.4667,0.4 -2.766699,0.6 -3.9,0.6 -0.666697,0 -1.30003,-0.06667 -1.9,-0.2 -0.533362,-0.133333 -1.000028,-0.433333 -1.4,-0.9 -0.400027,-0.399999 -0.700027,-0.899998 -0.9,-1.5 -0.200027,-0.599997 -0.300027,-1.266663 -0.3,-2 -2.7e-5,-2.333327 0.833306,-5.233324 2.5,-8.7 1.733302,-3.46665 4.3333,-7.466646 7.8,-12 3.466626,-4.533304 7.966622,-9.899965 13.5,-16.1 5.599944,-6.199953 12.266604,-13.199946 20,-20.9999998 -2.066735,0.6667281 -4.333399,1.8000603 -6.8,3.4 -2.400061,1.6000568 -4.966725,3.7000548 -7.7,6.2999998 -2.733387,2.533383 -6.333383,6.300046 -10.8,11.3 -4.400041,4.93337 -9.666702,11.066697 -15.8,18.4 -0.466696,0.600022 -1.033362,1.300022 -1.7,2.1 -0.600027,0.80002 -1.33336,1.700019 -2.2,2.7 -5.066687,6.066679 -9.23335,10.633341 -12.5,13.7 -3.20001,3.000001 -5.533341,4.5 -7,4.5 -0.466672,0 -0.866672,-0.06667 -1.2,-0.2 -0.333338,-0.06667 -0.600004,-0.233333 -0.8,-0.5 -0.26667,-0.333332 -0.46667,-0.733332 -0.6,-1.2 -0.06667,-0.466664 -0.100003,-1.033331 -0.1,-1.7 -3e-6,-2.333328 1.033329,-5.399991 3.1,-9.2 2.066658,-3.86665 5.166655,-8.466646 9.3,-13.8 4.133314,-5.333302 9.033309,-11.033296 14.7,-17.1 5.666631,-6.066617 12.133291,-12.533277 19.4,-19.3999998 -1.733381,0.466729 -3.600046,1.3000615 -5.6,2.5 -1.933376,1.1333925 -4.00004,2.5667248 -6.2,4.2999998 -2.200036,1.800054 -4.633367,4.000052 -7.3,6.6 -2.600028,2.600047 -5.466692,5.600044 -8.6,9 -1.333354,1.466706 -2.900019,3.200037 -4.7,5.2 -1.800016,1.933367 -3.86668,4.166698 -6.2,6.7 -8.666669,9.666686 -15.699995,16.933345 -21.1,21.8 -5.466651,4.800002 -9.2999808,7.2 -11.5,7.2 -0.7999778,0 -1.4999771,-0.1 -2.1,-0.3 -0.6666425,-0.133333 -1.2333086,-0.433333 -1.7,-0.9 -0.466641,-0.466665 -0.799974,-0.999998 -1,-1.6 -0.2666402,-0.666664 -0.3999734,-1.366663 -0.4,-2.1 2.66e-5,-0.866661 0.1666931,-1.66666 0.5,-2.4 0.2666925,-0.799992 0.6666921,-1.533325 1.2,-2.2 0.5333577,-0.733323 1.1333571,-1.233323 1.8,-1.5 0.6000225,-0.333322 1.2333552,-0.499989 1.9,-0.5 0.2666876,1.1e-5 0.5666873,0.06668 0.9,0.2 0.2666867,0.06668 0.5000198,0.233344 0.7,0.5 0.266686,0.266677 0.4666858,0.566677 0.6,0.9 0.133352,0.266676 0.200019,0.566676 0.2,0.9 1.9e-5,0.666675 -0.199981,1.233341 -0.6,1.7 -0.4666468,0.466673 -1.1333128,0.800006 -2,1 -0.8666444,0.266672 -1.4999771,0.566672 -1.9,0.9 -0.4666429,0.333338 -0.699976,0.733338 -0.7,1.2 2.4e-5,0.333337 0.066691,0.66667 0.2,1 0.133357,0.266669 0.3333568,0.500002 0.6,0.7 0.2666896,0.133335 0.5666893,0.266669 0.9,0.4 0.3333553,0.06667 0.7666882,0.100002 1.3,0.1 1.666686,2e-6 4.566683,-1.83333 8.7,-5.5 4.133342,-3.666656 9.500003,-9.199984 16.1,-16.6 2.333327,-2.533307 4.399992,-4.799971 6.2,-6.8 1.866655,-2.066634 3.466653,-3.833299 4.8,-5.3 5.933313,-6.333291 10.933308,-11.533286 15,-15.6 4.133299,-4.066611 7.433296,-6.9999415 9.9,-8.7999998 2.399958,-1.7332715 4.699956,-3.0332702 6.9,-3.9 2.199951,-0.8666018 4.266616,-1.2999347 6.2,-1.3 0.13328,6.53e-5 0.266614,6.53e-5 0.4,0 0.199947,6.53e-5 0.399946,6.53e-5 0.6,0 0.133279,6.53e-5 0.233279,0.033399 0.3,0.1 0.133279,6.52e-5 0.233279,6.52e-5 0.3,0 0.133279,6.52e-5 0.233279,0.033398 0.3,0.1 0.133279,6.51e-5 0.233278,6.51e-5 0.3,0 l 0,-0.1"
       style="font-size:100px;font-weight:bold;font-family:English;-inkscape-font-specification:English Bold"
       id="path3041" />
    <path
       d="m 110.7046,42.668437 2.7,-3.8 5.4,0 -16.5,22.1 -0.1,0.2 c -0.73334,1.066673 -1.30001,1.966672 -1.7,2.7 -0.33334,0.66667 -0.50001,1.16667 -0.5,1.5 -1e-5,0.266669 0.0333,0.500002 0.1,0.7 0.0667,0.133335 0.13333,0.266668 0.2,0.4 0.13333,0.06667 0.29999,0.133335 0.5,0.2 0.26666,0.06667 0.53333,0.100001 0.8,0.1 0.59999,10e-7 1.43332,-0.233332 2.5,-0.7 1.06666,-0.533331 2.36665,-1.33333 3.9,-2.4 1.53332,-1.133328 3.26665,-2.433326 5.2,-3.9 1.93331,-1.533323 4.03331,-3.299988 6.3,-5.3 l 1.3,1.3 c -2.20002,2.133344 -4.30002,4.000008 -6.3,5.6 -1.93335,1.600005 -3.76668,2.96667 -5.5,4.1 -1.66668,1.066668 -3.16668,1.866667 -4.5,2.4 -1.33334,0.466666 -2.46667,0.7 -3.4,0.7 -0.60001,0 -1.133339,-0.06667 -1.599999,-0.2 -0.466672,-0.133333 -0.900005,-0.333333 -1.3,-0.6 -0.333338,-0.333333 -0.600004,-0.733332 -0.8,-1.2 -0.133337,-0.533331 -0.200004,-1.099997 -0.2,-1.7 -4e-6,-0.33333 0.03333,-0.666663 0.1,-1 0.06666,-0.333329 0.133329,-0.699995 0.2,-1.1 0.133329,-0.399994 0.266662,-0.833327 0.4,-1.3 0.133329,-0.46666 0.266662,-0.966659 0.4,-1.5 -1.000004,0.933341 -2.000003,1.83334 -3,2.7 -0.933334,0.800005 -1.9,1.533337 -2.9,2.2 -0.533332,0.333336 -1.033331,0.666669 -1.5,1 -0.53333,0.266669 -1.03333,0.533335 -1.5,0.8 -1.466661,0.666667 -2.799993,1.166667 -4,1.5 -1.266657,0.4 -2.433323,0.599999 -3.5,0.6 -0.799988,-1e-6 -1.499987,-0.100001 -2.1,-0.3 -0.599986,-0.2 -1.133318,-0.466667 -1.6,-0.8 -0.466651,-0.466666 -0.799984,-0.999999 -1,-1.6 -0.199983,-0.599997 -0.299983,-1.299997 -0.3,-2.1 1.7e-5,-1.466661 0.300016,-2.999993 0.9,-4.6 0.533349,-1.59999 1.366681,-3.266655 2.5,-5 1.066679,-1.733318 2.400011,-3.36665 4,-4.9 1.533341,-1.59998 3.266673,-3.133312 5.2,-4.6 1.466669,-1.133309 2.933334,-2.133308 4.4,-3 1.399998,-0.86664 2.866663,-1.633305 4.4,-2.3 1.533327,-0.666637 2.966659,-1.166637 4.299999,-1.5 1.33332,-0.333303 2.56666,-0.499969 3.7,-0.5 0.73332,3.1e-5 1.36665,0.10003 1.9,0.3 0.59999,0.20003 1.06665,0.466696 1.4,0.8 0.39998,0.333362 0.66665,0.766695 0.8,1.3 0.19998,0.466694 0.29998,1.066694 0.3,1.8 l 0,0.9 0,0 m -4.4,-3 c -0.86668,0.0667 -1.86668,0.333361 -3,0.8 -1.06667,0.466694 -2.26667,1.166693 -3.599999,2.1 -1.400005,0.866691 -2.833337,1.933357 -4.3,3.2 -1.4,1.266688 -2.833332,2.666686 -4.3,4.2 -1.733329,1.73335 -3.266661,3.400015 -4.6,5 -1.333325,1.533345 -2.466657,2.966677 -3.4,4.3 -0.933322,1.333341 -1.633321,2.500006 -2.1,3.5 -0.53332,1.000004 -0.799987,1.86667 -0.8,2.6 1.3e-5,0.266669 0.06668,0.500002 0.2,0.7 0.06668,0.200002 0.16668,0.366668 0.3,0.5 0.200013,0.133335 0.433346,0.233335 0.7,0.3 0.200012,0.06667 0.466678,0.100001 0.8,0.1 1.00001,1e-6 2.133343,-0.233332 3.4,-0.7 1.200007,-0.466664 2.566672,-1.166664 4.1,-2.1 1.466669,-0.933328 2.966668,-2.066661 4.5,-3.4 1.533331,-1.333325 3.099996,-2.833323 4.7,-4.5 1.599989,-1.599987 2.999989,-3.099985 4.199999,-4.5 1.19999,-1.399982 2.23332,-2.733314 3.1,-4 0.86665,-1.266645 1.49999,-2.366644 1.9,-3.3 0.39999,-0.999975 0.59999,-1.833308 0.6,-2.5 -1e-5,-0.333307 -0.0667,-0.633307 -0.2,-0.9 -0.0667,-0.266639 -0.20001,-0.499972 -0.4,-0.7 -0.20001,-0.199972 -0.46668,-0.333305 -0.8,-0.4 -0.26668,-0.133305 -0.60001,-0.199972 -1,-0.2 l 0,-0.1"
       style="font-size:100px;font-weight:bold;font-family:English;-inkscape-font-specification:English Bold"
       id="path3043" />
    <path
       d="m 131.4921,71.268437 c -3.66666,1.466662 -6.99999,2.999994 -10,4.6 -3.06665,1.599991 -5.76665,3.266656 -8.1,5 -2.33331,1.733319 -4.06664,3.299984 -5.2,4.7 -1.19997,1.399981 -1.79997,2.633313 -1.8,3.7 3e-5,0.333312 0.0667,0.633312 0.2,0.9 0.0667,0.266644 0.1667,0.499977 0.3,0.7 0.20003,0.13331 0.4667,0.23331 0.8,0.3 0.2667,0.13331 0.5667,0.199977 0.9,0.2 1.20003,-2.3e-5 2.56669,-0.400023 4.1,-1.2 1.53336,-0.800021 3.23335,-2.00002 5.1,-3.6 1.86668,-1.666683 3.96668,-3.766681 6.3,-6.3 2.26668,-2.533343 4.76667,-5.53334 7.5,-9 l -0.1,0 m 4.2,-32.4 5.8,0 -17.4,22.6 c -0.26665,0.466673 -0.49999,0.900006 -0.7,1.3 -0.26665,0.400005 -0.49999,0.800005 -0.7,1.2 -0.26665,0.46667 -0.43332,0.86667 -0.5,1.2 -0.13332,0.266669 -0.19999,0.500002 -0.2,0.7 1e-5,0.200002 0.0667,0.400002 0.2,0.6 0.0667,0.200001 0.16668,0.366668 0.3,0.5 0.13335,0.06667 0.30001,0.166668 0.5,0.3 0.20001,0.06667 0.46668,0.100001 0.8,0.1 1.53334,10e-7 3.43334,-0.633332 5.7,-1.9 2.26667,-1.333329 4.83334,-3.299994 7.7,-5.9 2.93333,-2.666655 5.89999,-5.699986 8.9,-9.1 2.99999,-3.399979 5.99998,-7.233308 9,-11.5 l 5.4,-0.1 -20.7,27.2 c 1.4,-0.533331 2.73333,-1.099997 4,-1.7 1.33332,-0.666662 2.59999,-1.333328 3.8,-2 0.59999,-0.333327 1.19999,-0.633327 1.8,-0.9 0.59999,-0.333326 1.16665,-0.666659 1.7,-1 1.66665,-0.933325 3.23332,-1.89999 4.7,-2.9 1.53331,-1.066655 2.93331,-2.133321 4.2,-3.2 l 1.2,1.4 c -1.60002,1.333344 -3.30002,2.60001 -5.1,3.8 -1.73335,1.200007 -3.56668,2.366673 -5.5,3.5 -1.93335,1.066671 -3.96668,2.100003 -6.1,3.1 -2.13334,1.000001 -4.36667,1.9 -6.7,2.7 -2.66667,3.866662 -5.33333,7.299992 -8,10.3 -2.66666,2.999986 -5.33332,5.599983 -8,7.8 -2.66665,2.199979 -5.13331,3.833311 -7.4,4.9 -2.33331,1.066642 -4.43331,1.599975 -6.3,1.6 -0.66664,-2.5e-5 -1.26664,-0.06669 -1.8,-0.2 -0.5333,-0.133358 -0.99997,-0.366691 -1.4,-0.7 -0.46663,-0.266691 -0.79997,-0.600024 -1,-1 -0.19997,-0.400023 -0.29997,-0.866689 -0.3,-1.4 3e-5,-1.533354 0.70003,-3.200019 2.1,-5 1.33336,-1.733349 3.36669,-3.600013 6.1,-5.6 2.66669,-2.000009 5.80002,-3.900008 9.4,-5.7 3.53335,-1.800004 7.46667,-3.500002 11.8,-5.1 l 8.3,-10.8 c -1.86667,1.933342 -3.6,3.600007 -5.2,5 -1.66666,1.333337 -3.3,2.500003 -4.9,3.5 -1.59999,0.933334 -3.06666,1.633333 -4.4,2.1 -1.33332,0.466666 -2.53332,0.699999 -3.6,0.7 -0.66665,-1e-6 -1.23332,-0.100001 -1.7,-0.3 -0.46665,-0.200001 -0.86665,-0.5 -1.2,-0.9 -0.33332,-0.266666 -0.56665,-0.633333 -0.7,-1.1 -0.19998,-0.533332 -0.29998,-1.133331 -0.3,-1.8 2e-5,-0.866663 0.10002,-1.733329 0.3,-2.6 0.20002,-0.933327 0.53335,-1.899993 1,-2.9 0.46668,-0.999991 1.03335,-2.033323 1.7,-3.1 0.66668,-1.066654 1.43335,-2.13332 2.3,-3.2 l 11.1,-14.5 0,0"
       style="font-size:100px;font-weight:bold;font-family:English;-inkscape-font-specification:English Bold"
       id="path3045" />
    <path
       d="m 193.32179,42.668437 2.7,-3.8 5.4,0 -16.5,22.1 -0.1,0.2 c -0.73334,1.066673 -1.30001,1.966672 -1.7,2.7 -0.33334,0.66667 -0.50001,1.16667 -0.5,1.5 -1e-5,0.266669 0.0333,0.500002 0.1,0.7 0.0667,0.133335 0.13333,0.266668 0.2,0.4 0.13332,0.06667 0.29999,0.133335 0.5,0.2 0.26666,0.06667 0.53332,0.100001 0.8,0.1 0.59999,10e-7 1.43332,-0.233332 2.5,-0.7 1.06665,-0.533331 2.36665,-1.33333 3.9,-2.4 1.53332,-1.133328 3.26665,-2.433326 5.2,-3.9 1.93331,-1.533323 4.03331,-3.299988 6.3,-5.3 l 1.3,1.3 c -2.20003,2.133344 -4.30002,4.000008 -6.3,5.6 -1.93335,1.600005 -3.76669,2.96667 -5.5,4.1 -1.66668,1.066668 -3.16668,1.866667 -4.5,2.4 -1.33334,0.466666 -2.46668,0.7 -3.4,0.7 -0.60001,0 -1.13334,-0.06667 -1.6,-0.2 -0.46667,-0.133333 -0.90001,-0.333333 -1.3,-0.6 -0.33334,-0.333333 -0.60001,-0.733332 -0.8,-1.2 -0.13334,-0.533331 -0.20001,-1.099997 -0.2,-1.7 -1e-5,-0.33333 0.0333,-0.666663 0.1,-1 0.0667,-0.333329 0.13333,-0.699995 0.2,-1.1 0.13333,-0.399994 0.26666,-0.833327 0.4,-1.3 0.13333,-0.46666 0.26666,-0.966659 0.4,-1.5 -1.00001,0.933341 -2,1.83334 -3,2.7 -0.93334,0.800005 -1.9,1.533337 -2.9,2.2 -0.53333,0.333336 -1.03333,0.666669 -1.5,1 -0.53333,0.266669 -1.03333,0.533335 -1.5,0.8 -1.46666,0.666667 -2.79999,1.166667 -4,1.5 -1.26666,0.4 -2.43332,0.599999 -3.5,0.6 -0.79999,-1e-6 -1.49999,-0.100001 -2.1,-0.3 -0.59999,-0.2 -1.13332,-0.466667 -1.6,-0.8 -0.46665,-0.466666 -0.79999,-0.999999 -1,-1.6 -0.19998,-0.599997 -0.29998,-1.299997 -0.3,-2.1 2e-5,-1.466661 0.30001,-2.999993 0.9,-4.6 0.53335,-1.59999 1.36668,-3.266655 2.5,-5 1.06668,-1.733318 2.40001,-3.36665 4,-4.9 1.53334,-1.59998 3.26667,-3.133312 5.2,-4.6 1.46667,-1.133309 2.93333,-2.133308 4.4,-3 1.4,-0.86664 2.86666,-1.633305 4.4,-2.3 1.53333,-0.666637 2.96666,-1.166637 4.3,-1.5 1.33332,-0.333303 2.56665,-0.499969 3.7,-0.5 0.73332,3.1e-5 1.36665,0.10003 1.9,0.3 0.59998,0.20003 1.06665,0.466696 1.4,0.8 0.39998,0.333362 0.66665,0.766695 0.8,1.3 0.19998,0.466694 0.29998,1.066694 0.3,1.8 l 0,0.9 0,0 m -4.4,-3 c -0.86668,0.0667 -1.86668,0.333361 -3,0.8 -1.06668,0.466694 -2.26668,1.166693 -3.6,2.1 -1.40001,0.866691 -2.83334,1.933357 -4.3,3.2 -1.4,1.266688 -2.83333,2.666686 -4.3,4.2 -1.73333,1.73335 -3.26666,3.400015 -4.6,5 -1.33333,1.533345 -2.46666,2.966677 -3.4,4.3 -0.93332,1.333341 -1.63332,2.500006 -2.1,3.5 -0.53332,1.000004 -0.79999,1.86667 -0.8,2.6 1e-5,0.266669 0.0667,0.500002 0.2,0.7 0.0667,0.200002 0.16668,0.366668 0.3,0.5 0.20001,0.133335 0.43334,0.233335 0.7,0.3 0.20001,0.06667 0.46668,0.100001 0.8,0.1 1.00001,1e-6 2.13334,-0.233332 3.4,-0.7 1.20001,-0.466664 2.56667,-1.166664 4.1,-2.1 1.46667,-0.933328 2.96667,-2.066661 4.5,-3.4 1.53333,-1.333325 3.09999,-2.833323 4.7,-4.5 1.59999,-1.599987 2.99999,-3.099985 4.2,-4.5 1.19999,-1.399982 2.23332,-2.733314 3.1,-4 0.86665,-1.266645 1.49998,-2.366644 1.9,-3.3 0.39998,-0.999975 0.59998,-1.833308 0.6,-2.5 -2e-5,-0.333307 -0.0667,-0.633307 -0.2,-0.9 -0.0667,-0.266639 -0.20002,-0.499972 -0.4,-0.7 -0.20002,-0.199972 -0.46668,-0.333305 -0.8,-0.4 -0.26668,-0.133305 -0.60001,-0.199972 -1,-0.2 l 0,-0.1"
       style="font-size:100px;font-weight:bold;font-family:English;-inkscape-font-specification:English Bold"
       id="path3047" />
  </g>
</svg>
