<?xml version="1.0" encoding="UTF-8" standalone="no"?>
<!-- Created with Inkscape (http://www.inkscape.org/) -->

<svg
   xmlns:dc="http://purl.org/dc/elements/1.1/"
   xmlns:cc="http://creativecommons.org/ns#"
   xmlns:rdf="http://www.w3.org/1999/02/22-rdf-syntax-ns#"
   xmlns:svg="http://www.w3.org/2000/svg"
   xmlns="http://www.w3.org/2000/svg"
   xmlns:sodipodi="http://sodipodi.sourceforge.net/DTD/sodipodi-0.dtd"
   xmlns:inkscape="http://www.inkscape.org/namespaces/inkscape"
   id="svg2"
   version="1.1"
   inkscape:version="0.48.1 r9760"
   width="100%"
   height="100%"
   sodipodi:docname="drawing.svg">
  <metadata
     id="metadata12">
    <rdf:RDF>
      <cc:Work
         rdf:about="">
        <dc:format>image/svg+xml</dc:format>
        <dc:type
           rdf:resource="http://purl.org/dc/dcmitype/StillImage" />
        <dc:title></dc:title>
      </cc:Work>
    </rdf:RDF>
  </metadata>
  <defs
     id="defs10">
    <inkscape:path-effect
       effect="skeletal"
       id="path-effect3010"
       is_visible="true"
       pattern="m -359.12854,69.290631 171.59366,-7.3121 -82.48368,13.18373 48.72647,0.58358 -59.76029,15.4856 74.06623,19.384489 -152.78991,-12.939659 45.00499,-8.38626 -103.28207,-2.81473 91.02711,-9.69375 z"
       copytype="single_stretched"
       prop_scale="1"
       scale_y_rel="false"
       spacing="0"
       normal_offset="0"
       tang_offset="0"
       prop_units="false"
       vertical_pattern="false"
       fuse_tolerance="0"
       pattern-nodetypes="ccccccccccc" />
    <inkscape:path-effect
       effect="spiro"
       id="path-effect3008"
       is_visible="true" />
    <inkscape:path-effect
       effect="spiro"
       id="path-effect2991"
       is_visible="true" />
  </defs>
  <sodipodi:namedview
     pagecolor="#ffffff"
     bordercolor="#666666"
     borderopacity="1"
     objecttolerance="10"
     gridtolerance="10"
     guidetolerance="10"
     inkscape:pageopacity="0"
     inkscape:pageshadow="2"
     inkscape:window-width="891"
     inkscape:window-height="736"
     id="namedview8"
     showgrid="false"
     inkscape:zoom="0.50172841"
     inkscape:cx="180.70866"
     inkscape:cy="859.03049"
     inkscape:window-x="0"
     inkscape:window-y="43"
     inkscape:window-maximized="0"
     inkscape:current-layer="svg2" />
  <path
     style="fill:#000000;fill-rule:evenodd;stroke:none"
     d="m 87.018438,27.882796 c 6.079176,2.875504 11.619239,6.517322 16.495832,10.677825 10.61795,8.901106 18.78814,19.002713 25.68474,28.619491 7.0104,9.514936 13.02915,18.484472 19.56245,25.548003 1e-5,3e-6 1e-5,7e-6 1e-5,1.1e-5 6.59097,6.9031 13.27186,12.680744 20.14797,15.005924 4.8147,1.83748 10.1339,2.57253 15.08568,2.04979 8.49602,-0.70165 17.2895,-5.7708 22.89798,-12.552406 5.76313,-6.808738 8.86345,-16.5865 8.79238,-25.837887 -0.11677,-3.567124 -0.49851,-6.72534 -1.44184,-9.140832 -0.94137,-2.356314 -2.01894,-4.344334 -3.23136,-5.315716 -1.60905,-1.627396 -5.1603,-2.789537 -7.25408,-2.359591 -2.1083,0.198849 -5.12246,2.132777 -6.01549,3.887402 0,2e-6 0,3e-6 0,4e-6 -1.08547,1.616073 -1.47303,5.02001 -0.7237,6.657265 0.51479,1.69964 2.80071,4.038817 4.38749,4.424236 -1.79399,0.07019 -4.71186,-2.014966 -5.83859,-4.038266 -1.34645,-1.964856 -1.47851,-6.117506 -0.26233,-8.797967 1.04862,-2.801101 4.68705,-5.818649 8.16998,-6.628465 0,0 0,0 0,0 3.47128,-0.995014 8.65407,0.121274 11.93307,2.763095 2.11387,1.558252 3.95299,4.2342 5.41074,7.373485 0,10e-7 0,2e-6 0,3e-6 1.45913,3.179858 2.2525,7.076495 2.6254,11.304734 0.68649,9.116103 -1.21391,18.864793 -5.73146,27.220073 5.29272,-7.839699 8.27959,-17.541006 8.52834,-27.173435 0.0686,-4.457639 -0.33184,-8.746987 -1.52188,-12.558144 0,-1e-6 0,-2e-6 0,-3e-6 -1.18903,-3.781615 -2.96704,-7.271586 -5.38171,-9.824369 -1e-5,0 -1e-5,-10e-7 -1e-5,-2e-6 -3.90716,-4.353145 -10.45272,-7.032632 -16.33741,-6.659662 -2.14853,0.0966 -4.34616,0.607988 -6.43971,1.452822 1.93343,-1.235667 4.09404,-2.187435 6.36025,-2.716782 6.20816,-1.546694 14.10274,0.06066 19.8858,4.694616 0,2e-6 1e-5,3e-6 1e-5,4e-6 3.45201,2.712341 6.30995,6.616507 8.37801,11.053046 2.06852,4.447785 3.2851,9.492389 3.85154,14.705129 1.47083,13.737076 -1.8035,28.662083 -10.35344,41.065053 -3.28879,4.76 -7.35328,9.09645 -12.0382,12.79766 5.38322,-2.5851 10.47104,-6.00672 15.00836,-10.20151 11.77484,-10.92484 19.63393,-26.464112 21.6082,-43.424002 0,-3e-6 0,-6e-6 0,-1e-5 0.79879,-6.394148 0.68802,-13.22741 -0.76219,-20.299312 -1.45139,-7.109625 -4.55196,-14.220502 -9.57364,-20.699896 0,-3e-6 -1e-5,-7e-6 -1e-5,-10e-6 -8.93465,-11.118782 -22.48287,-18.071655 -37.80474,-18.327084 -15.30949,-0.05825 -30.11329,6.471938 -40.65313,18.999728 -4.98439,6.097382 -8.61443,13.090842 -10.67509,20.61413 1.70349,-7.594887 5.00597,-14.806937 9.78899,-21.252124 10.13067,-13.24361 25.01777,-20.935413 41.32844,-21.714665 1e-5,-3e-7 2e-5,-6e-7 2e-5,-10e-7 16.3252,-0.5478373 31.42519,5.972293 42.13445,17.845972 5.98893,6.915034 9.98323,14.622037 12.09585,22.479196 2.11087,7.800637 2.79216,15.390665 2.39624,22.492043 0,8e-6 0,1.5e-5 0,2.2e-5 -0.82012,18.887392 -8.20019,37.021373 -21.02071,51.032693 -12.95717,14.03223 -30.92366,22.50457 -49.9853,23.40365 -10.88282,0.41338 -21.59154,-1.73973 -31.29072,-6.15188 -13.36841,-6.33998 -23.75658,-15.68796 -31.67896,-25.75979 0,0 0,0 0,0 -7.96873,-9.9463 -14.0651,-20.102739 -20.01949,-29.388477 C 97.502496,76.017758 91.652185,67.440869 84.53151,60.957674 81.000214,57.796223 77.196158,54.950639 73.222085,52.766371 c 4.278475,1.541787 8.583278,3.827508 12.687819,6.564988 8.265341,5.607838 15.606156,13.656815 22.874996,22.208026 0,10e-7 0,2e-6 0,4e-6 7.2248,8.59077 14.42256,17.838635 22.84644,26.067151 2.96487,2.91261 6.11675,5.68237 9.44001,8.2052 -3.05722,-2.81795 -5.89995,-5.84646 -8.54264,-8.98462 C 125.02258,97.948548 118.89447,88.242325 112.51517,78.91552 106.12066,69.602438 99.405406,60.536524 91.038906,53.279841 82.679462,46.047235 72.534,40.524943 61.644786,39.413079 c -2.551434,-0.267942 -5.132851,-0.299085 -7.699927,-0.100227 -8.090827,0.625847 -16.04079,3.602716 -22.592757,8.493814 -10e-7,10e-7 -3e-6,2e-6 -4e-6,3e-6 -6.553129,4.889587 -11.71748,11.701147 -14.663802,19.393762 -2.947609,7.69214 -3.677617,16.268043 -2.04525,24.404751 1.631549,8.136883 5.624605,15.827958 11.394665,21.877588 -6.141813,-5.68596 -10.716023,-13.2293 -12.920321,-21.551276 -2.202544,-8.32235 -2.022151,-17.372451 0.642971,-25.809776 2.668771,-8.43598 7.793475,-16.174967 14.743891,-22.029443 6.954055,-5.849729 15.63552,-9.736941 24.877169,-10.994584 2.923404,-0.39726 5.897189,-0.532829 8.878602,-0.391731 12.725193,0.70822 24.736762,6.145905 34.498614,13.825375 2e-6,1e-6 3e-6,2e-6 5e-6,3e-6 9.744828,7.602297 17.640808,16.894929 24.719168,26.079863 4.10994,5.264764 8.01255,10.500428 11.97452,15.419807 -3.1284,-5.524982 -6.14998,-11.305895 -9.4459,-17.19844 -5.64615,-10.291904 -12.30895,-20.942185 -21.78007,-30.752383 0,-10e-7 0,-2e-6 0,-3e-6 C 97.876628,35.514451 92.798352,31.35214 87.018438,27.882796 z"
     id="path3006"
     inkscape:path-effect="#path-effect3008;#path-effect3010"
     inkscape:original-d="M 25.910434,113.60728 C 0.74381405,76.331701 39.634514,52.048561 53.813974,37.869091 c 1.32874,-1.32874 6.6437,1.32874 7.97244,0 30.65467,-30.6546658 62.294276,87.696849 99.655506,87.696849 2.76782,0 18.93463,8.96891 23.91732,3.98622 19.23889,-19.23888 51.82087,-11.40318 51.82087,-57.800189 0,-15.65137 -0.84942,-20.78052 -9.96555,-29.89666 -23.84343,-23.84342 -55.01663,30.68711 -35.87599,49.82776"
     inkscape:connector-curvature="0" />
</svg>
